/* XPM */
static char * Exit2_xpm[] = {
"64 64 3 1",
" 	c #532000",
".	c #391904",
"+	c #0475B6",
"                         ....++++++++...                        ",
"                        .....++++++++...                        ",
"                        .....++++++++...                        ",
"                        .....++++++++...                        ",
"                        .....++++++++...                        ",
"                        .....++++++++...                        ",
"                       .....+++++++++...                        ",
"                       .....+++++++++...                        ",
"                       .....+++++++++...                        ",
"                       .....+++++++++...                        ",
"                       ....++++++++++...                        ",
"                      .....++++++++++...                        ",
"                      .....++++++++++...                        ",
"                      .....++++++++++....                       ",
"                      .....++++++++++....                       ",
"                      .....++++++++++.....                      ",
"                       ...++++++++++++....                      ",
"                       ...+++++++++++++...                      ",
"                       ...+++++++++++++...                      ",
"                       ....+++++++++++....                      ",
"                       ....+++++++++++....                      ",
"                       ....+++++++++++...                       ",
"                       ....+++++++++++...                       ",
"                       ....+++++++++++...                       ",
"                        ...+++++++++++...                       ",
"                        ....++++++++++...                       ",
"                        ....++++++++++...                       ",
"                        ....++++++++++...                       ",
"                       .....++++++++++...                       ",
"                       .....++++++++++...                       ",
"                       .....+++++++++....                       ",
"                       .....+++++++++....                       ",
"                       .....+++++++++....                       ",
"                       .....+++++++++...                        ",
"                       .....+++++++++...                        ",
"                       .....+++++++++...                        ",
"                       .....+++++++++....                       ",
"                      .....++++++++++....                       ",
"                      ......+++++++++....                       ",
"                      ......++++++++++...                       ",
"                      ......++++++++++...                       ",
"                      ......++++++++++...                       ",
"                       .....++++++++++...                       ",
"                       .....++++++++++...                       ",
"                       .....++++++++++....                      ",
"                       .....++++++++++....                      ",
"                       .....++++++++++....                      ",
"                       .....+++++++++++...                      ",
"                       .....+++++++++++...                      ",
"                       ....++++++++++++...                      ",
"                       ....++++++++++++...                      ",
"                       ....++++++++++++...                      ",
"                       ....++++++++++++...                      ",
"                      .....++++++++++++...                      ",
"                      ....+++++++++++++...                      ",
"                      ....+++++++++++++...                      ",
"                      ....+++++++++++++...                      ",
"                      ...++++++++++++++...                      ",
"                     ....+++++++++++++....                      ",
"                     ....+++++++++++++....                      ",
"                     ....+++++++++++++....                      ",
"                     ...++++++++++++++...                       ",
"                     ...++++++++++++++...                       ",
"                     ...++++++++++++++...                       "};
