/* XPM */
static char * luffy_xpm[] = {
"64 64 38 1",
" 	c #1DB0F5",
".	c #0797F6",
"+	c #06A2F6",
"@	c #67C7F6",
"#	c #B2DFF6",
"$	c #000000",
"%	c #F8E808",
"&	c #C89800",
"*	c #A04800",
"=	c #D88828",
"-	c #F8C890",
";	c #989898",
">	c #F8F8F8",
",	c #401000",
"'	c #980000",
")	c #F84030",
"!	c #0798F6",
"~	c #06A3F6",
"{	c #1DB1F5",
"]	c #1FB1F5",
"^	c #23B1F5",
"/	c #1498F6",
"(	c #0B98F6",
"_	c #68C8F6",
":	c #206088",
"<	c #0AA3F6",
"[	c #1D98F5",
"}	c #5098C8",
"|	c #1CA3F5",
"1	c #29B1F4",
"2	c #B1DFF6",
"3	c #6AC7F5",
"4	c #B3DFF5",
"5	c #29B0F4",
"6	c #0797F5",
"7	c #06A2F5",
"8	c #0798F5",
"9	c #67C7F5",
" ...++.. .....+  ...++.. .....+  ...++.. .....+  ...++.. .....+ ",
".....+..  ...++ .....+..  ...++ .....+..  ...++ .....+..  ...++ ",
".....+ @##@ .++ .....+ @##@ .++ .....+ @##@ .++ .....+ @##@ .++ ",
" ...+@#....@  @@ ...+@#....@  @@ ...+@#....@  @@ ...+@#....@  @@",
"@@  @+++...   ..@@  @+++...   ..@@  @+++...   ..@@  @+++...   ..",
"..  +++++++@+.....  +++++++@+.....  +++++++@+.....  +++++++@+...",
".++ ......@++..+.++ ......@++..+.++ ......@++..+.++ ......@++..+",
"++  ....@#@+++++++  ....@#@+++++++  ....@#@+++++++  ....@#@+++++",
"  @...@##@+.+++.  @...@##@+.+++.  @...@##@+.+++.  @...@##@+.+++.",
" @.  @@....+++.  @.  @@....+++.  @.  @@....+++.  @.  @@....+++. ",
"@@  +.....++@  @@@  +.....++@  @@@  +.....++@  @@@  +.....++@  @",
".@@+...... @ ....@@+...... @ .$$$$$$...... @ ....@@+...... @ ...",
".@#@@  @@@@ .....@#@@  @@@@ $$%%$%%%$  @@@@ .....@#@@  @@@@ ....",
"@#@...  @@ +++..@#@...  @@ $%%%$%%%%&$  @@ +++..@#@...  @@ +++..",
"#++....+@ ...++@#++....+@ $%%%$$$&&$$&$+@ ...++@#++....+@ ...++@",
" .++++++ .....+@ .++++++ $%%&$$$$$$$&&$+ .....+@ .++++++ .....+@",
" ...++.. .....+  ...++..$&%&$$$$$$$$$&$. .....+  ...++.. .....+ ",
".....+..  ...++ .....+..$%%$$$$$*$$*$$$. $$$.++ .....+..  ...++ ",
".....+ @##@ .++ .....+ $$%&$$$$==$$=*$$@$-*-$++ .....+ @##@ .++ ",
" ...+@#....@  @@ ...+@#$&%$$=;>$=$-=$$#$=,=--$@@ ...+@#....@  @@",
"@@  @+++...   ..@@  @++$&&$$=>$>---$;$+$=,=*--$.@@  @+++...   ..",
"..  +++++++@+.....  +++$&$-*=;>;---=$++$$$,==*$...  +++++++@+...",
".++ ......@++..+.++ ....$$-*-*==--*=$..$==$,,-$+.++ ......@++..+",
"++  ....@#@+++++++  ....$&$$-*>>>>>=$...$$$==$++++  ....@#@+++++",
"  @...@##@+.+++.  @...@##$&$*-*>>>-$$$@##$*$$++.  @...@##@+.+++.",
" @.  @@....+++.  @.  @@...$$$*---=$---$$$=**$+.  @.  @@....+++. ",
"@@  +.....++@  @@@  +.....+$$$=$$$$-----$=*$@  @@@  +.....++@  @",
".@@+...... @ ....@@+......$---$$'$=-----$=*$ ....@@+...... @ ...",
".@#@@  @@@@ .....@#@@  @@$==---$$$==---=$*$ .....@#@@  @@@@ ....",
"@#@...  @@ +++..@#@...  @$=====---=====$**$+++..@#@...  @@ +++..",
"#++....+@ ...++@#++....+@$**$$=---==$$$**$...++@#++....+@ ...++@",
" .++++++ .....+@ .++++++$'''''$===$$$$$$$.....+@ .++++++ .....+@",
" ...++.. .....+  ...++..$')))'%$$$!!~~!!{!!!!!~{{!!!~~!!{!!!!!~{",
".....+..  ...++ .....+..$)))))''$!!!!~!!{{!!!~~{!!!!!~!!{{!!!~~{",
".....+ @##@ .++ .....+ @$))))))'$!!!!~{@##@{!~~{!!!!!~{@##@{!~~{",
" ...+@#....@  @@ ...+@#.$)))))%''$!!~@#!!!!@{{@@{!!!~@#!!!!@{{@@",
"@@  @+++...   ..@@  @++$'))))'$$'${{@~~~!!!{]^/(_@{{@~~~!!!{{{!!",
"..  +++++++@+.....  +++$'))'$$::$$$$$~~~~~~@<[[[[/]^<<<<~~~@~!!!",
".++ ......@++..+.++ ...$$$$$}}}}}::::$$$!!@<|[[|[||1[[[/((@~~!!~",
"++  ....@#@+++++++  ...$}}}}}}::::::::;,$2_|||||||11[[[[32_<~~~~",
"  @...@##@+.+++.  @...$:}}}}:::::::::;,==$|[|||[113[[[3443|(<~~!",
" @.  @@....+++.  @.  $>>>}}:$$$$$$::;,*==$[|||[113[1133[[[[|<<(]",
"@@  +.....++@  @@@  $;,,>>:$@  @@@$$;,==$[||31133311|[[[[[||3113",
".@@+...... @ ....@@+$$--,>$@ ...!@@~$$=$[[131[[[[33|[[[[[[131[[[",
".@#@@  @@@@ .....@#@$$--,;$ ....!@#@$*=$3331[[[[[34331133331[[[[",
"@#@...  @@ +++..@#@.$==$,$ +++..@#@!$=$1331|||[[343[[[11331|||[[",
"#++....+@ ...++@#++$==$$$ ...++@#~~$*=$|31[[[||34||[[[[|35[[[||3",
" .++++++ .....+@ .$---$+ .....+@{!$===$|1[[[[[|31[||||||5[[[[[|3",
" ...++.. .....+  $---$.. .....+ {$*====$$[[[[[|11[[[||[[5[[[[[|5",
".....+..  ...++ $$$-$$$.  ...++ !$*====$$$$[[||1[[[[[|[[11[[[||5",
".....+ @##@ .++$=--$---$##@ .++ !$****$**==$[||5[[[[[|134431[||5",
" ...+@#....@  $==--$---$...@  @@{!$$$$$$$$$$11335[[[|34[[[[31133",
"@@  @+++...   $$$$$$$$$$...   ..@@{{@|||[[[111[[33513|||[[[111[[",
"..  +++++++@+.....  +++++++@+...!!{{<||||||3|[[[[[11|||||||3|[[[",
".++ ......@++..+.++ ......@++..+!~~{/[[[[[3||[[|[||1[[[[[[3||[[|",
"++  ....@#@+++++++  ....@#@+++++~~{{([[[343|||||||11[[[[343|||||",
"  @...@##@+.+++.  @...@##@+.+++.{{@!([3443|[|||[553[[[3443|[|||[",
" @.  @@....+++.  @.  @@....+++. {@!{^33[[[[|||[553[1133[[[[|||[5",
"@@  +.....++@  @@@  +.....++@  @@@{{<![[[[||31133311|[[[[[||3553",
".@@+...... @ ....@@+...... @ ...!@@~/([[[[131[[[[33|[[[[[[535[66",
".@#@@  @@@@ .....@#@@  @@@@ ....!@#@@]{33331[[[[[34331133335[666",
"@#@...  @@ +++..@#@...  @@ +++..@#@!!(]1331|||[[343[[[15335||788",
"#++....+@ ...++@#++....+@ ...++@#~~!!!(~31[[[||34||[[[[|35[[6779",
" .++++++ .....+@ .++++++ .....+@{!~~~~<<1[[[[[|35[||||||5[[[6679"};
